<svg width="57" height="40" viewBox="0 0 57 40" fill="none" xmlns="http://www.w3.org/2000/svg">
<g clip-path="url(#clip0)">
<path d="M30.7151 20.0351C30.7151 25.7254 26.1334 30.3383 20.482 30.3383C14.8306 30.3383 10.2487 25.7254 10.2487 20.0351C10.2487 14.3447 14.8303 9.73148 20.482 9.73148C26.1338 9.73148 30.7151 14.3447 30.7151 20.0351Z" fill="#4C515A"/>
<path d="M41.941 20.0353C41.941 25.3915 39.6501 29.7353 36.8242 29.7353C33.9983 29.7353 31.7075 25.3915 31.7075 20.0353C31.7075 14.679 33.998 10.3352 36.8239 10.3352C39.6498 10.3352 41.9406 14.6777 41.9406 20.0353" fill="#4C515A"/>
<path d="M46.5328 20.0351C46.5328 24.833 45.7273 28.7249 44.7333 28.7249C43.7393 28.7249 42.9341 24.8341 42.9341 20.0351C42.9341 15.2362 43.7396 11.3454 44.7333 11.3454C45.7269 11.3454 46.5328 15.2359 46.5328 20.0351Z" fill="#4C515A"/>
</g>
<defs>
<clipPath id="clip0">
<rect width="56.8016" height="40" fill="white"/>
</clipPath>
</defs>
</svg>
