<svg width="69" height="48" viewBox="0 0 69 48" fill="none" xmlns="http://www.w3.org/2000/svg">
<g clip-path="url(#clip0)">
<path d="M36.858 24.0421C36.858 30.8705 31.3601 36.406 24.5784 36.406C17.7967 36.406 12.2983 30.8705 12.2983 24.0421C12.2983 17.2136 17.7963 11.6777 24.5784 11.6777C31.3605 11.6777 36.858 17.2136 36.858 24.0421Z" fill="black"/>
<path d="M50.3292 24.0424C50.3292 30.4699 47.5802 35.6825 44.1891 35.6825C40.7981 35.6825 38.0491 30.4699 38.0491 24.0424C38.0491 17.6149 40.7976 12.4023 44.1887 12.4023C47.5798 12.4023 50.3288 17.6132 50.3288 24.0424" fill="black"/>
<path d="M55.8393 24.0424C55.8393 29.7998 54.8726 34.4701 53.6798 34.4701C52.487 34.4701 51.5208 29.8011 51.5208 24.0424C51.5208 18.2837 52.4874 13.6147 53.6798 13.6147C54.8722 13.6147 55.8393 18.2833 55.8393 24.0424Z" fill="black"/>
</g>
<defs>
<clipPath id="clip0">
<rect width="68.1619" height="48" fill="white"/>
</clipPath>
</defs>
</svg>
